<?xml version="1.0" encoding="UTF-8" standalone="no"?>
<svg
   id="svg8"
   version="1.1"
   viewBox="0 0 92 92"
   height="92mm"
   width="92mm"
   sodipodi:docname="searxng-wordmark.svg"
   inkscape:version="1.4 (e7c3feb100, 2024-10-09)"
   xmlns:inkscape="http://www.inkscape.org/namespaces/inkscape"
   xmlns:sodipodi="http://sodipodi.sourceforge.net/DTD/sodipodi-0.dtd"
   xmlns="http://www.w3.org/2000/svg"
   xmlns:svg="http://www.w3.org/2000/svg"
   xmlns:rdf="http://www.w3.org/1999/02/22-rdf-syntax-ns#"
   xmlns:cc="http://creativecommons.org/ns#"
   xmlns:dc="http://purl.org/dc/elements/1.1/">
  <sodipodi:namedview
     id="namedview1"
     pagecolor="#ffffff"
     bordercolor="#000000"
     borderopacity="0.25"
     inkscape:showpageshadow="2"
     inkscape:pageopacity="0.0"
     inkscape:pagecheckerboard="0"
     inkscape:deskcolor="#d1d1d1"
     inkscape:document-units="mm"
     inkscape:zoom="2"
     inkscape:cx="74.75"
     inkscape:cy="160.75"
     inkscape:window-width="1920"
     inkscape:window-height="1053"
     inkscape:window-x="0"
     inkscape:window-y="0"
     inkscape:window-maximized="1"
     inkscape:current-layer="svg8" />
  <defs
     id="defs2">
    <linearGradient
       id="swatch24">
      <stop
         style="stop-color:#000000;stop-opacity:1;"
         offset="0"
         id="stop24" />
    </linearGradient>
  </defs>
  <metadata
     id="metadata5">
    <rdf:RDF>
      <cc:Work
         rdf:about="">
        <dc:format>image/svg+xml</dc:format>
        <dc:type
           rdf:resource="http://purl.org/dc/dcmitype/StillImage" />
        <dc:title />
      </cc:Work>
    </rdf:RDF>
  </metadata>
  <path
     style="display:inline;fill:#ac3636;fill-opacity:1;stroke:#ac3636;stroke-width:0.39685;stroke-dasharray:none;stroke-opacity:1"
     d="m 247.80324,299.92045 c -27.21612,-26.06878 -49.5509,-47.39779 -49.63286,-47.39779 -0.082,0 -2.18024,1.06633 -4.66285,2.36962 -42.50158,22.31191 -94.386399,19.62402 -134.160905,-6.9502 -7.762503,-5.1863 -12.728918,-9.32237 -20.31355,-16.91727 C 27.262014,219.23779 20.590507,209.91389 13.353203,195.13536 -0.60804626,166.62658 -3.5238591,133.08169 5.2372702,101.76584 8.9866526,88.364008 16.305888,73.077692 24.377595,61.791017 46.899122,30.299148 80.359665,10.700127 118.6953,6.5458112 c 8.33853,-0.9036208 24.48566,-0.623767 32.06153,0.5556736 24.32307,3.7867132 43.93235,12.1718222 63.13066,26.9952572 5.41789,4.183273 16.91226,15.514904 21.18405,20.884129 25.50104,32.052323 34.87877,72.546289 25.98441,112.203339 -2.23803,9.97868 -5.89005,20.20807 -10.50277,29.41848 l -2.69674,5.38471 49.13723,47.06325 c 27.02547,25.88479 49.09071,47.18933 49.03387,47.34343 -0.0967,0.26221 -48.51568,50.92415 -48.66955,50.92415 -0.039,0 -22.33864,-21.329 -49.55475,-47.39778 z M 145.57892,231.64539 c 23.97048,-3.51512 45.87925,-16.02894 60.72649,-34.68568 8.452,-10.6206 15.00678,-24.06098 18.06514,-37.04197 1.85793,-7.8859 2.41625,-12.8845 2.4246,-21.70739 0.0101,-10.62663 -1.01176,-18.05942 -3.7634,-27.37546 -10.72259,-36.302695 -42.4216,-62.742853 -80.38151,-67.046245 -5.51744,-0.625495 -20.5171,-0.277405 -25.54983,0.592923 -15.4935,2.679348 -29.431429,8.6469 -41.821572,17.905982 -4.702602,3.514228 -12.664956,11.207864 -16.526426,15.968681 -9.939296,12.254192 -16.663249,26.802039 -19.508805,42.208979 -4.203149,22.75745 -0.04314,46.21225 11.688441,65.90135 5.299495,8.89413 13.818084,18.75517 21.687913,25.10572 14.383097,11.60642 31.928419,18.75932 50.853269,20.73191 4.58507,0.47792 17.21284,0.15871 22.10569,-0.5588 z"
     id="path1"
     transform="scale(0.26458333)" />
  <path
     style="display:inline;fill:#ac3636;fill-opacity:1;stroke-width:0.398301"
     d="m 247.80324,299.92045 c -27.21612,-26.06878 -49.5509,-47.39779 -49.63286,-47.39779 -0.082,0 -2.18024,1.06633 -4.66285,2.36962 -42.50158,22.31191 -94.386399,19.62402 -134.160905,-6.9502 -7.762503,-5.1863 -12.728918,-9.32237 -20.31355,-16.91727 C 27.262014,219.23779 20.590507,209.91389 13.353203,195.13536 -0.60804626,166.62658 -3.5238591,133.08169 5.2372702,101.76584 8.9866526,88.364008 16.305888,73.077692 24.377595,61.791017 46.899122,30.299148 80.359665,10.700127 118.6953,6.5458112 c 8.33853,-0.9036208 24.48566,-0.623767 32.06153,0.5556736 24.32307,3.7867132 43.93235,12.1718222 63.13066,26.9952572 5.41789,4.183273 16.91226,15.514904 21.18405,20.884129 25.50104,32.052323 34.87877,72.546289 25.98441,112.203339 -2.23803,9.97868 -5.89005,20.20807 -10.50277,29.41848 l -2.69674,5.38471 49.13723,47.06325 c 27.02547,25.88479 49.09071,47.18933 49.03387,47.34343 -0.0967,0.26221 -48.51568,50.92415 -48.66955,50.92415 -0.039,0 -22.33864,-21.329 -49.55475,-47.39778 z M 145.57892,231.64539 c 23.97048,-3.51512 45.87925,-16.02894 60.72649,-34.68568 8.452,-10.6206 15.00678,-24.06098 18.06514,-37.04197 1.85793,-7.8859 2.41625,-12.8845 2.4246,-21.70739 0.0101,-10.62663 -1.01176,-18.05942 -3.7634,-27.37546 -10.72259,-36.302695 -42.4216,-62.742853 -80.38151,-67.046245 -5.51744,-0.625495 -20.5171,-0.277405 -25.54983,0.592923 -15.4935,2.679348 -29.431429,8.6469 -41.821572,17.905982 -4.702602,3.514228 -12.664956,11.207864 -16.526426,15.968681 -9.939296,12.254192 -16.663249,26.802039 -19.508805,42.208979 -4.203149,22.75745 -0.04314,46.21225 11.688441,65.90135 5.299495,8.89413 13.818084,18.75517 21.687913,25.10572 14.383097,11.60642 31.928419,18.75932 50.853269,20.73191 4.58507,0.47792 17.21284,0.15871 22.10569,-0.5588 z"
     id="path4"
     transform="scale(0.26458333)" />
  <path
     style="display:inline;fill:#ac3636;fill-opacity:1;stroke:#ac3636;stroke-width:0.374173;stroke-dasharray:none;stroke-opacity:1"
     d="m 191.76979,169.3476 -7.89614,-4.18977 1.19449,-2.5005 c 1.62477,-3.40123 3.33124,-8.60511 4.3407,-13.23695 0.71805,-3.29471 0.83796,-4.96131 0.83111,-11.55134 -0.009,-8.32028 -0.50727,-11.79957 -2.61672,-18.25884 -1.45044,-4.44136 -5.45556,-12.29617 -8.21669,-16.1145 -7.87449,-10.88956 -19.59734,-18.94491 -32.49459,-22.328644 -6.10227,-1.600996 -10.38284,-2.039963 -17.44137,-1.788587 -8.34795,0.297296 -14.82908,1.768968 -21.8786,4.967975 l -2.66569,1.209666 -4.09628,-7.92648 c -2.252954,-4.359564 -4.153906,-8.060984 -4.224336,-8.225378 -0.194999,-0.455155 5.799016,-3.106574 10.809486,-4.781514 20.95563,-7.005219 43.6133,-4.699835 62.94152,6.404205 10.63124,6.107636 20.90938,16.074518 27.19338,26.369867 7.52234,12.32415 11.32745,25.82093 11.35728,40.2844 0.0186,9.02604 -0.99587,15.6469 -3.68394,24.04256 -1.38611,4.32926 -4.72109,11.84056 -5.24959,11.82352 -0.16933,-0.005 -3.86115,-1.89532 -8.20402,-4.19969 z"
     id="path27"
     transform="scale(0.26458333)" />
</svg>
