<svg xmlns="http://www.w3.org/2000/svg" width="861" height="103" viewBox="0 0 861 103" version="1.1"><path d="M 40.105 1.525 C 28.173 4.861, 17.802 12.933, 13.458 22.263 C 10.373 28.890, 10.104 39.436, 12.866 45.500 C 14.786 49.717, 20.967 55.902, 25.690 58.333 C 27.236 59.128, 34.566 61.645, 41.980 63.925 C 57.345 68.651, 60 70.053, 60 73.441 C 60 79.986, 55.784 82.391, 44.500 82.286 C 34.873 82.195, 31.176 80.762, 24.645 74.589 C 21.975 72.065, 19.334 70, 18.776 70 C 17.760 70, 7.905 75.680, 2.761 79.230 L 0.021 81.121 1.952 84.905 C 5.599 92.054, 15.243 98.526, 26.693 101.508 C 34.067 103.429, 51.591 103.421, 59.769 101.492 C 72.721 98.439, 82.859 91.060, 87.730 81.142 C 90.009 76.500, 90.500 74.171, 90.500 68 C 90.500 53.227, 85.890 48.945, 60.891 40.498 C 43.084 34.481, 40 32.935, 40 30.025 C 40 24.304, 44.585 21.670, 54.500 21.694 C 62.072 21.713, 66.864 23.269, 72.435 27.518 C 76.375 30.523, 76.075 30.611, 87.250 23.189 C 90.963 20.724, 94 18.236, 94 17.660 C 94 17.084, 91.626 14.313, 88.723 11.502 C 80.560 3.596, 72.650 0.770, 57.500 0.349 C 48.964 0.112, 43.943 0.451, 40.105 1.525 M 564.265 1.542 C 541.556 7.657, 525.365 28.949, 523.390 55.294 C 521.852 75.795, 530.042 91.860, 545.849 99.349 C 552.207 102.361, 553.052 102.500, 565 102.500 C 576.703 102.500, 577.832 102.325, 582.713 99.752 C 585.580 98.240, 589.533 95.593, 591.497 93.869 C 593.460 92.145, 595.223 90.906, 595.413 91.117 C 595.604 91.328, 596.946 93.862, 598.397 96.750 L 601.034 102 606.017 102 C 608.758 102, 611.005 101.888, 611.010 101.750 C 611.016 101.612, 612.591 90.475, 614.510 77 C 616.429 63.525, 618 52.163, 618 51.750 C 618 50.708, 572.240 50.802, 571.595 51.846 C 571.308 52.311, 570.766 56.361, 570.392 60.846 L 569.712 69 577.356 69 C 585.694 69, 586.224 69.473, 582.982 74.025 C 579.677 78.667, 574.491 81.286, 568.602 81.286 C 558.509 81.286, 556 77.565, 556 62.597 C 556 50.678, 558.133 40.406, 562.189 32.797 C 565.718 26.175, 568.604 23.480, 573.656 22.084 C 581.872 19.816, 587.961 23.616, 590.587 32.653 C 591.917 37.227, 592.494 38, 594.578 38 C 597.899 38, 617.045 35.090, 618.128 34.421 C 620.532 32.935, 617.434 21.279, 613.011 15.175 C 608.815 9.382, 601.628 4.365, 594.145 2.005 C 586.542 -0.394, 572.271 -0.615, 564.265 1.542 M 712.105 1.525 C 700.173 4.861, 689.802 12.933, 685.458 22.263 C 682.373 28.890, 682.104 39.436, 684.866 45.500 C 686.786 49.717, 692.967 55.902, 697.690 58.333 C 699.236 59.128, 706.566 61.645, 713.980 63.925 C 729.345 68.651, 732 70.053, 732 73.441 C 732 79.986, 727.784 82.391, 716.500 82.286 C 706.873 82.195, 703.176 80.762, 696.645 74.589 C 693.975 72.065, 691.334 70, 690.776 70 C 689.760 70, 679.905 75.680, 674.761 79.230 L 672.021 81.121 673.952 84.905 C 677.599 92.054, 687.243 98.526, 698.693 101.508 C 706.067 103.429, 723.591 103.421, 731.769 101.492 C 744.721 98.439, 754.859 91.060, 759.730 81.142 C 762.009 76.500, 762.500 74.171, 762.500 68 C 762.500 53.227, 757.890 48.945, 732.891 40.498 C 715.084 34.481, 712 32.935, 712 30.025 C 712 24.304, 716.585 21.670, 726.500 21.694 C 734.072 21.713, 738.864 23.269, 744.435 27.518 C 748.375 30.523, 748.075 30.611, 759.250 23.189 C 762.962 20.724, 766 18.236, 766 17.660 C 766 17.084, 763.626 14.313, 760.723 11.502 C 752.560 3.596, 744.650 0.770, 729.500 0.349 C 720.964 0.112, 715.943 0.451, 712.105 1.525 M 325.534 2.945 C 325.213 3.464, 330.221 14.442, 336.663 27.340 L 348.376 50.790 330.822 72.711 C 321.167 84.767, 312.723 95.649, 312.057 96.894 C 309.578 101.526, 310.851 102, 325.791 102 L 339.645 102 350.419 86.929 C 356.344 78.640, 361.353 72.020, 361.551 72.218 C 361.749 72.415, 364.141 77.584, 366.868 83.704 C 369.595 89.824, 372.591 96.444, 373.527 98.416 L 375.228 102 391.055 102 C 400.714 102, 407.127 101.603, 407.511 100.982 C 407.857 100.422, 402.251 88.519, 395.054 74.530 L 381.968 49.095 397.844 29.226 C 416.467 5.919, 417.644 4.244, 416.319 2.919 C 415.748 2.348, 409.569 2.057, 401.451 2.221 L 387.561 2.500 378.905 14.459 C 370.900 25.517, 368 28.641, 368 26.206 C 368 25.677, 365.698 20.015, 362.884 13.622 L 357.769 2 341.943 2 C 333.089 2, 325.861 2.416, 325.534 2.945 M 430.543 4.222 C 429.002 11.124, 416.965 99.467, 417.409 100.623 C 417.817 101.686, 420.665 102, 429.901 102 C 440.431 102, 441.928 101.790, 442.385 100.250 C 442.671 99.287, 444.304 88.375, 446.013 76 C 447.723 63.625, 449.457 52.644, 449.868 51.598 C 450.455 50.102, 453.781 54.902, 465.458 74.098 C 473.622 87.519, 480.979 99.287, 481.806 100.250 C 483.073 101.725, 485.088 102, 494.610 102 L 505.909 102 506.474 98.750 C 507.158 94.818, 520 3.575, 520 2.651 C 520 2.293, 514.384 2, 507.519 2 C 495.390 2, 495.024 2.063, 494.539 4.250 C 494.265 5.488, 492.691 16.352, 491.043 28.394 C 489.394 40.436, 487.858 50.475, 487.629 50.704 C 487.400 50.933, 483.953 45.581, 479.968 38.810 C 475.983 32.040, 469.519 21.100, 465.603 14.500 L 458.483 2.500 444.768 2.222 C 431.207 1.947, 431.046 1.970, 430.543 4.222 M 782.536 4.250 C 780.988 11.196, 768.968 99.475, 769.413 100.635 C 769.858 101.793, 776.460 101.980, 809.223 101.762 L 848.500 101.500 849.685 93.500 C 850.337 89.100, 850.899 84.263, 850.935 82.750 L 851 80 827.559 80 C 814.666 80, 803.918 79.662, 803.673 79.250 C 803.428 78.838, 803.739 75.125, 804.364 71 L 805.500 63.500 820.238 63.223 C 834.563 62.954, 834.988 62.884, 835.429 60.723 C 835.984 58.007, 838 43.290, 838 41.959 C 838 41.391, 832.053 41, 823.402 41 L 808.804 41 809.526 34.750 C 810.882 23.004, 808.534 24, 834.867 24 L 857.783 24 858.316 21.750 C 859.644 16.143, 861.073 3.926, 860.508 3.012 C 860.103 2.358, 846.306 2, 821.460 2 L 783.038 2 782.536 4.250 M 127.286 30.396 C 116.263 33.985, 106.856 42.466, 101.196 53.917 C 97.758 60.874, 97.500 62.026, 97.500 70.448 C 97.500 77.585, 97.952 80.478, 99.637 84.122 C 102.705 90.757, 108.321 96.519, 114.839 99.720 C 120.114 102.311, 121.353 102.500, 133.021 102.500 C 145.103 102.500, 145.771 102.387, 152.085 99.279 C 159.013 95.868, 169.413 86.805, 168.776 84.732 C 168.350 83.344, 161.341 79.632, 155.898 77.911 C 152.569 76.859, 151.973 77.007, 148.011 79.877 C 142.771 83.673, 137.780 85.148, 132.850 84.360 C 127.250 83.465, 124.829 80.712, 125.197 75.662 L 125.500 71.500 148.624 71.232 L 171.747 70.964 172.368 66.232 C 174.256 51.853, 167.142 37.666, 155.143 31.881 C 149.324 29.076, 133.870 28.251, 127.286 30.396 M 202.500 30.406 C 191.242 33.188, 183 40.136, 183 46.843 C 183 49.190, 183.119 49.238, 194.837 51.590 L 204.173 53.464 206.854 50.179 C 208.611 48.027, 210.908 46.584, 213.517 45.993 C 220.914 44.320, 224.571 46.897, 223.364 52.931 C 222.668 56.408, 222.115 56.616, 211.500 57.374 C 192.726 58.716, 177.362 68.385, 175.145 80.254 C 172.493 94.449, 180.377 103.047, 195.962 102.956 C 204.443 102.907, 209.383 101.471, 214.502 97.566 C 217.745 95.093, 218 95.042, 218 96.867 C 218 101.803, 218.498 102, 230.996 102 L 242.777 102 243.346 98.750 C 245.958 83.837, 250.076 49.548, 249.721 45.676 C 248.994 37.735, 243.264 32.080, 233.914 30.075 C 227.295 28.655, 208.794 28.850, 202.500 30.406 M 299.500 31.653 C 296.750 33.062, 292.997 35.628, 291.160 37.357 L 287.819 40.500 288.160 35.500 L 288.500 30.500 275.375 30.222 L 262.250 29.944 261.231 36.806 C 256.759 66.936, 252.760 98.932, 253.292 100.320 C 253.849 101.769, 255.651 102, 266.410 102 C 273.752 102, 279.139 101.583, 279.508 100.987 C 279.852 100.430, 281.369 91.206, 282.877 80.490 C 285.454 62.193, 285.795 60.823, 288.475 58.026 C 292.313 54.020, 296.601 52.779, 305.243 53.171 L 312.480 53.500 314.185 42.066 C 315.123 35.778, 315.664 30.265, 315.386 29.816 C 314.250 27.977, 304.472 29.108, 299.500 31.653 M 137.542 45.741 C 134.275 46.552, 130.978 49.142, 129.449 52.099 C 126.637 57.536, 127.176 58, 136.300 58 C 145.350 58, 147 57.215, 147 52.911 C 147 48.118, 142.305 44.559, 137.542 45.741 M 627.679 57.729 C 627.423 58.153, 626.704 61.814, 626.080 65.865 C 625.221 71.443, 625.229 73.571, 626.113 74.636 C 627.056 75.772, 630.934 75.990, 646.319 75.771 L 665.358 75.500 666.160 72.500 C 666.601 70.850, 667.083 66.800, 667.231 63.500 L 667.500 57.500 647.822 57.229 C 636.999 57.080, 627.935 57.305, 627.679 57.729 M 209.330 72.427 C 203.865 74.971, 202 77.255, 202 81.399 C 202 87.106, 212.337 87.544, 217.250 82.046 C 218.762 80.353, 220.006 77.963, 220.014 76.734 C 220.021 75.505, 220.299 73.487, 220.630 72.250 C 221.169 70.242, 220.872 70.001, 217.867 70.010 C 216.015 70.015, 212.173 71.103, 209.330 72.427" stroke="none" fill="#ac3636" fill-rule="evenodd"/></svg>